<svg xmlns="http://www.w3.org/2000/svg" width="1216" height="1216" shape-rendering="crispEdges"><defs><path id="Z" d="M0,0h1v1h-1z"/><use id="0" fill="%23000" href="%23Z"/><use id="1" fill="%231D2B53" href="%23Z"/><use id="2" fill="%237E2553" href="%23Z"/><use id="3" fill="%23008751" href="%23Z"/><use id="4" fill="%23AB5236" href="%23Z"/><use id="5" fill="%235F574F" href="%23Z"/><use id="6" fill="%23C2C3C7" href="%23Z"/><use id="7" fill="%23FFF1E8" href="%23Z"/><use id="8" fill="%23FF004D" href="%23Z"/><use id="9" fill="%23FFA300" href="%23Z"/><use id="A" fill="%23FFEC27" href="%23Z"/><use id="B" fill="%2300E436" href="%23Z"/><use id="C" fill="%2329ADFF" href="%23Z"/><use id="D" fill="%2383769C" href="%23Z"/><use id="E" fill="%23FF77A8" href="%23Z"/><use id="F" fill="%23FCA" href="%23Z"/></defs><g transform="scale(64)"><use x="0" y="0" href="%23"/><use x="1" y="0" href="%23"/><use x="2" y="0" href="%23"/><use x="3" y="0" href="%23"/><use x="4" y="0" href="%23"/><use x="5" y="0" href="%23"/><use x="6" y="0" href="%23"/><use x="7" y="0" href="%23"/><use x="8" y="0" href="%23"/><use x="9" y="0" href="%23"/><use x="10" y="0" href="%23"/><use x="11" y="0" href="%23"/><use x="12" y="0" href="%23"/><use x="13" y="0" href="%23"/><use x="14" y="0" href="%23"/><use x="15" y="0" href="%23"/><use x="16" y="0" href="%23"/><use x="17" y="0" href="%23"/><use x="18" y="0" href="%23"/><use x="0" y="1" href="%23"/><use x="1" y="1" href="%23"/><use x="2" y="1" href="%23"/><use x="3" y="1" href="%23"/><use x="4" y="1" href="%23"/><use x="5" y="1" href="%23"/><use x="6" y="1" href="%23"/><use x="7" y="1" href="%23"/><use x="8" y="1" href="%23"/><use x="9" y="1" href="%23"/><use x="10" y="1" href="%23"/><use x="11" y="1" href="%23"/><use x="12" y="1" href="%23"/><use x="13" y="1" href="%23"/><use x="14" y="1" href="%23"/><use x="15" y="1" href="%23"/><use x="16" y="1" href="%23"/><use x="17" y="1" href="%23"/><use x="18" y="1" href="%23"/><use x="0" y="2" href="%23"/><use x="1" y="2" href="%23"/><use x="2" y="2" href="%23"/><use x="3" y="2" href="%23"/><use x="4" y="2" href="%23"/><use x="5" y="2" href="%23"/><use x="6" y="2" href="%23"/><use x="7" y="2" href="%23"/><use x="8" y="2" href="%23"/><use x="9" y="2" href="%23"/><use x="10" y="2" href="%23"/><use x="11" y="2" href="%23"/><use x="12" y="2" href="%23"/><use x="13" y="2" href="%23"/><use x="14" y="2" href="%23"/><use x="15" y="2" href="%23"/><use x="16" y="2" href="%23"/><use x="17" y="2" href="%23"/><use x="18" y="2" href="%23"/><use x="0" y="3" href="%23"/><use x="1" y="3" href="%23"/><use x="2" y="3" href="%23"/><use x="3" y="3" href="%23"/><use x="4" y="3" href="%23"/><use x="5" y="3" href="%23"/><use x="6" y="3" href="%23"/><use x="7" y="3" href="%23"/><use x="8" y="3" href="%23"/><use x="9" y="3" href="%23"/><use x="10" y="3" href="%23"/><use x="11" y="3" href="%23"/><use x="12" y="3" href="%23"/><use x="13" y="3" href="%23"/><use x="14" y="3" href="%23"/><use x="15" y="3" href="%23"/><use x="16" y="3" href="%23"/><use x="17" y="3" href="%23"/><use x="18" y="3" href="%23"/><use x="0" y="4" href="%23"/><use x="1" y="4" href="%23"/><use x="2" y="4" href="%23"/><use x="3" y="4" href="%23"/><use x="4" y="4" href="%23"/><use x="5" y="4" href="%23"/><use x="6" y="4" href="%23"/><use x="7" y="4" href="%23"/><use x="8" y="4" href="%23"/><use x="9" y="4" href="%23"/><use x="10" y="4" href="%23"/><use x="11" y="4" href="%23"/><use x="12" y="4" href="%23"/><use x="13" y="4" href="%23"/><use x="14" y="4" href="%23"/><use x="15" y="4" href="%23"/><use x="16" y="4" href="%23"/><use x="17" y="4" href="%23"/><use x="18" y="4" href="%23"/><use x="0" y="5" href="%23"/><use x="1" y="5" href="%23"/><use x="2" y="5" href="%23"/><use x="3" y="5" href="%23"/><use x="4" y="5" href="%23"/><use x="5" y="5" href="%23"/><use x="6" y="5" href="%23"/><use x="7" y="5" href="%23"/><use x="8" y="5" href="%23"/><use x="9" y="5" href="%23"/><use x="10" y="5" href="%23"/><use x="11" y="5" href="%23"/><use x="12" y="5" href="%23"/><use x="13" y="5" href="%23"/><use x="14" y="5" href="%23"/><use x="15" y="5" href="%23"/><use x="16" y="5" href="%23"/><use x="17" y="5" href="%23"/><use x="18" y="5" href="%23"/><use x="0" y="6" href="%23"/><use x="1" y="6" href="%23"/><use x="2" y="6" href="%23"/><use x="3" y="6" href="%23"/><use x="4" y="6" href="%23"/><use x="5" y="6" href="%23"/><use x="6" y="6" href="%23"/><use x="7" y="6" href="%23"/><use x="8" y="6" href="%23"/><use x="9" y="6" href="%23"/><use x="10" y="6" href="%23"/><use x="11" y="6" href="%23"/><use x="12" y="6" href="%23"/><use x="13" y="6" href="%23"/><use x="14" y="6" href="%23"/><use x="15" y="6" href="%23"/><use x="16" y="6" href="%23"/><use x="17" y="6" href="%23"/><use x="18" y="6" href="%23"/><use x="0" y="7" href="%23"/><use x="1" y="7" href="%23"/><use x="2" y="7" href="%23"/><use x="3" y="7" href="%23"/><use x="4" y="7" href="%23"/><use x="5" y="7" href="%23"/><use x="6" y="7" href="%23"/><use x="7" y="7" href="%23"/><use x="8" y="7" href="%23"/><use x="9" y="7" href="%23"/><use x="10" y="7" href="%23"/><use x="11" y="7" href="%23"/><use x="12" y="7" href="%23"/><use x="13" y="7" href="%23"/><use x="14" y="7" href="%23"/><use x="15" y="7" href="%23"/><use x="16" y="7" href="%23"/><use x="17" y="7" href="%23"/><use x="18" y="7" href="%23"/><use x="0" y="8" href="%23"/><use x="1" y="8" href="%23"/><use x="2" y="8" href="%23"/><use x="3" y="8" href="%23"/><use x="4" y="8" href="%23"/><use x="5" y="8" href="%23"/><use x="6" y="8" href="%23"/><use x="7" y="8" href="%23"/><use x="8" y="8" href="%23"/><use x="9" y="8" href="%23"/><use x="10" y="8" href="%23"/><use x="11" y="8" href="%23"/><use x="12" y="8" href="%23"/><use x="13" y="8" href="%23"/><use x="14" y="8" href="%23"/><use x="15" y="8" href="%23"/><use x="16" y="8" href="%23"/><use x="17" y="8" href="%23"/><use x="18" y="8" href="%23"/><use x="0" y="9" href="%23"/><use x="1" y="9" href="%23"/><use x="2" y="9" href="%23"/><use x="3" y="9" href="%23"/><use x="4" y="9" href="%23"/><use x="5" y="9" href="%23"/><use x="6" y="9" href="%23"/><use x="7" y="9" href="%23"/><use x="8" y="9" href="%23"/><use x="9" y="9" href="%23"/><use x="10" y="9" href="%23"/><use x="11" y="9" href="%23"/><use x="12" y="9" href="%23"/><use x="13" y="9" href="%23"/><use x="14" y="9" href="%23"/><use x="15" y="9" href="%23"/><use x="16" y="9" href="%23"/><use x="17" y="9" href="%23"/><use x="18" y="9" href="%23"/><use x="0" y="10" href="%23"/><use x="1" y="10" href="%23"/><use x="2" y="10" href="%23"/><use x="3" y="10" href="%23"/><use x="4" y="10" href="%23"/><use x="5" y="10" href="%23"/><use x="6" y="10" href="%23"/><use x="7" y="10" href="%23"/><use x="8" y="10" href="%23"/><use x="9" y="10" href="%23"/><use x="10" y="10" href="%23"/><use x="11" y="10" href="%23"/><use x="12" y="10" href="%23"/><use x="13" y="10" href="%23"/><use x="14" y="10" href="%23"/><use x="15" y="10" href="%23"/><use x="16" y="10" href="%23"/><use x="17" y="10" href="%23"/><use x="18" y="10" href="%23"/><use x="0" y="11" href="%23"/><use x="1" y="11" href="%23"/><use x="2" y="11" href="%23"/><use x="3" y="11" href="%23"/><use x="4" y="11" href="%23"/><use x="5" y="11" href="%23"/><use x="6" y="11" href="%23"/><use x="7" y="11" href="%23"/><use x="8" y="11" href="%23"/><use x="9" y="11" href="%23"/><use x="10" y="11" href="%23"/><use x="11" y="11" href="%23"/><use x="12" y="11" href="%23"/><use x="13" y="11" href="%23"/><use x="14" y="11" href="%23"/><use x="15" y="11" href="%23"/><use x="16" y="11" href="%23"/><use x="17" y="11" href="%23"/><use x="18" y="11" href="%23"/><use x="0" y="12" href="%23"/><use x="1" y="12" href="%23"/><use x="2" y="12" href="%23"/><use x="3" y="12" href="%23"/><use x="4" y="12" href="%23"/><use x="5" y="12" href="%23"/><use x="6" y="12" href="%23"/><use x="7" y="12" href="%23"/><use x="8" y="12" href="%23"/><use x="9" y="12" href="%23"/><use x="10" y="12" href="%23"/><use x="11" y="12" href="%23"/><use x="12" y="12" href="%23"/><use x="13" y="12" href="%23"/><use x="14" y="12" href="%23"/><use x="15" y="12" href="%23"/><use x="16" y="12" href="%23"/><use x="17" y="12" href="%23"/><use x="18" y="12" href="%23"/><use x="0" y="13" href="%23"/><use x="1" y="13" href="%23"/><use x="2" y="13" href="%23"/><use x="3" y="13" href="%23"/><use x="4" y="13" href="%23"/><use x="5" y="13" href="%23"/><use x="6" y="13" href="%23"/><use x="7" y="13" href="%23"/><use x="8" y="13" href="%23"/><use x="9" y="13" href="%23"/><use x="10" y="13" href="%23"/><use x="11" y="13" href="%23"/><use x="12" y="13" href="%23"/><use x="13" y="13" href="%23"/><use x="14" y="13" href="%23"/><use x="15" y="13" href="%23"/><use x="16" y="13" href="%23"/><use x="17" y="13" href="%23"/><use x="18" y="13" href="%23"/><use x="0" y="14" href="%23"/><use x="1" y="14" href="%23"/><use x="2" y="14" href="%23"/><use x="3" y="14" href="%23"/><use x="4" y="14" href="%23"/><use x="5" y="14" href="%23"/><use x="6" y="14" href="%23"/><use x="7" y="14" href="%23"/><use x="8" y="14" href="%23"/><use x="9" y="14" href="%23"/><use x="10" y="14" href="%23"/><use x="11" y="14" href="%23"/><use x="12" y="14" href="%23"/><use x="13" y="14" href="%23"/><use x="14" y="14" href="%23"/><use x="15" y="14" href="%23"/><use x="16" y="14" href="%23"/><use x="17" y="14" href="%23"/><use x="18" y="14" href="%23"/><use x="0" y="15" href="%23"/><use x="1" y="15" href="%23"/><use x="2" y="15" href="%23"/><use x="3" y="15" href="%23"/><use x="4" y="15" href="%23"/><use x="5" y="15" href="%23"/><use x="6" y="15" href="%23"/><use x="7" y="15" href="%23"/><use x="8" y="15" href="%23"/><use x="9" y="15" href="%23"/><use x="10" y="15" href="%23"/><use x="11" y="15" href="%23"/><use x="12" y="15" href="%23"/><use x="13" y="15" href="%23"/><use x="14" y="15" href="%23"/><use x="15" y="15" href="%23"/><use x="16" y="15" href="%23"/><use x="17" y="15" href="%23"/><use x="18" y="15" href="%23"/><use x="0" y="16" href="%23"/><use x="1" y="16" href="%23"/><use x="2" y="16" href="%23"/><use x="3" y="16" href="%23"/><use x="4" y="16" href="%23"/><use x="5" y="16" href="%23"/><use x="6" y="16" href="%23"/><use x="7" y="16" href="%23"/><use x="8" y="16" href="%23"/><use x="9" y="16" href="%23"/><use x="10" y="16" href="%23"/><use x="11" y="16" href="%23"/><use x="12" y="16" href="%23"/><use x="13" y="16" href="%23"/><use x="14" y="16" href="%23"/><use x="15" y="16" href="%23"/><use x="16" y="16" href="%23"/><use x="17" y="16" href="%23"/><use x="18" y="16" href="%23"/><use x="0" y="17" href="%23"/><use x="1" y="17" href="%23"/><use x="2" y="17" href="%23"/><use x="3" y="17" href="%23"/><use x="4" y="17" href="%23"/><use x="5" y="17" href="%23"/><use x="6" y="17" href="%23"/><use x="7" y="17" href="%23"/><use x="8" y="17" href="%23"/><use x="9" y="17" href="%23"/><use x="10" y="17" href="%23"/><use x="11" y="17" href="%23"/><use x="12" y="17" href="%23"/><use x="13" y="17" href="%23"/><use x="14" y="17" href="%23"/><use x="15" y="17" href="%23"/><use x="16" y="17" href="%23"/><use x="17" y="17" href="%23"/><use x="18" y="17" href="%23"/><use x="0" y="18" href="%23"/><use x="1" y="18" href="%23"/><use x="2" y="18" href="%23"/><use x="3" y="18" href="%23"/><use x="4" y="18" href="%23"/><use x="5" y="18" href="%23"/><use x="6" y="18" href="%23"/><use x="7" y="18" href="%23"/><use x="8" y="18" href="%23"/><use x="9" y="18" href="%23"/><use x="10" y="18" href="%23"/><use x="11" y="18" href="%23"/><use x="12" y="18" href="%23"/><use x="13" y="18" href="%23"/><use x="14" y="18" href="%23"/><use x="15" y="18" href="%23"/><use x="16" y="18" href="%23"/><use x="17" y="18" href="%23"/><use x="18" y="18" href="%23"/></g></svg>